<?xml version="1.0" encoding="UTF-8"?>
<svg xmlns="http://www.w3.org/2000/svg" xmlns:xlink="http://www.w3.org/1999/xlink" width="50pt" height="50pt" viewBox="0 0 50 50" version="1.1">
<g id="surface1">
<path style=" stroke:none;fill-rule:nonzero;fill:rgb(96.862745%,96.862745%,96.862745%);fill-opacity:1;" d="M 32.636719 20.914062 C 32.636719 19.6875 31.210938 19 30.253906 19.773438 C 27.433594 22.042969 27.351562 23.535156 25 23.535156 C 22.648438 23.535156 22.589844 22.0625 19.746094 19.773438 C 18.792969 19.003906 17.363281 19.683594 17.363281 20.914062 C 17.363281 25.753906 13.917969 26.6875 13.917969 32.292969 C 13.917969 32.765625 14.144531 33.207031 14.53125 33.484375 C 14.582031 33.519531 14.742188 33.632812 14.761719 34.0625 C 15.078125 40.636719 18.179688 43.429688 15.710938 45.976562 C 15.015625 46.695312 15.230469 47.886719 16.132812 48.320312 C 18.371094 49.386719 21.601562 50 25 50 C 28.398438 50 31.632812 49.386719 33.867188 48.320312 C 34.769531 47.886719 34.984375 46.695312 34.289062 45.976562 C 31.820312 43.429688 34.921875 40.632812 35.238281 34.0625 C 35.257812 33.632812 35.417969 33.519531 35.472656 33.484375 C 35.855469 33.207031 36.082031 32.765625 36.082031 32.292969 C 36.082031 26.695312 32.636719 25.742188 32.636719 20.914062 Z M 32.636719 20.914062 "/>
<path style=" stroke:none;fill-rule:nonzero;fill:rgb(87.843137%,87.843137%,87.843137%);fill-opacity:1;" d="M 32.636719 20.914062 C 32.636719 19.6875 31.210938 19 30.253906 19.773438 C 27.433594 22.042969 27.351562 23.535156 25 23.535156 L 25 50 C 28.402344 50 31.632812 49.386719 33.867188 48.320312 C 34.769531 47.886719 34.984375 46.695312 34.289062 45.976562 C 31.820312 43.429688 34.921875 40.632812 35.238281 34.0625 C 35.257812 33.632812 35.417969 33.519531 35.472656 33.484375 C 35.855469 33.207031 36.082031 32.765625 36.082031 32.292969 C 36.082031 26.695312 32.636719 25.742188 32.636719 20.914062 Z M 32.636719 20.914062 "/>
<path style=" stroke:none;fill-rule:nonzero;fill:rgb(16.078431%,29.019608%,29.019608%);fill-opacity:1;" d="M 39.277344 12.652344 C 38.90625 4.605469 32.988281 0 25 0 C 17.011719 0 11.09375 4.605469 10.722656 12.652344 C 10.273438 22.417969 3.515625 26.816406 7.695312 36.078125 C 8.316406 37.453125 12.425781 38.261719 12.089844 34.878906 C 11.960938 33.589844 13.894531 33.023438 14.527344 33.480469 C 15.496094 34.175781 16.847656 33.484375 16.847656 32.292969 C 16.847656 27.699219 20.292969 26.714844 20.292969 20.914062 C 20.292969 20.472656 20.09375 20.050781 19.75 19.773438 C 19.273438 19.390625 18.695312 18.957031 18.035156 18.488281 C 18.476562 18.378906 18.933594 18.273438 19.398438 18.183594 C 20.542969 17.953125 20.972656 16.539062 20.148438 15.710938 C 19.582031 15.144531 19.246094 14.183594 19.246094 13.144531 C 19.246094 11.734375 19.996094 10.160156 21 10.160156 C 22.003906 10.160156 22.757812 11.734375 22.757812 13.144531 C 22.757812 13.816406 22.617188 14.449219 22.359375 14.980469 C 21.121094 15.804688 21.769531 17.757812 23.269531 17.660156 C 24.40625 17.585938 25.515625 17.578125 26.734375 17.660156 C 28.230469 17.757812 28.878906 15.804688 27.640625 14.980469 C 27.382812 14.449219 27.246094 13.816406 27.246094 13.144531 C 27.246094 11.734375 27.996094 10.160156 29 10.160156 C 30.003906 10.160156 30.757812 11.734375 30.757812 13.144531 C 30.757812 14.183594 30.417969 15.144531 29.851562 15.710938 C 29.027344 16.539062 29.460938 17.953125 30.601562 18.183594 C 31.066406 18.273438 31.523438 18.378906 31.964844 18.488281 C 31.304688 18.957031 30.726562 19.386719 30.25 19.773438 C 29.90625 20.050781 29.707031 20.472656 29.707031 20.914062 C 29.707031 26.742188 33.152344 27.679688 33.152344 32.292969 C 33.152344 33.484375 34.507812 34.175781 35.472656 33.480469 C 36.109375 33.023438 38.039062 33.589844 37.914062 34.878906 C 37.574219 38.269531 41.6875 37.441406 42.304688 36.078125 C 46.488281 26.8125 39.726562 22.421875 39.277344 12.652344 Z M 39.277344 12.652344 "/>
<path style=" stroke:none;fill-rule:nonzero;fill:rgb(10.980392%,13.72549%,13.72549%);fill-opacity:1;" d="M 39.277344 12.652344 C 38.90625 4.605469 32.988281 0 25 0 L 25 17.601562 C 25.5625 17.601562 26.132812 17.621094 26.734375 17.660156 C 28.230469 17.757812 28.878906 15.804688 27.640625 14.976562 C 27.382812 14.449219 27.246094 13.816406 27.246094 13.144531 C 27.246094 11.734375 27.996094 10.160156 29 10.160156 C 30.003906 10.160156 30.757812 11.734375 30.757812 13.144531 C 30.757812 14.183594 30.417969 15.144531 29.851562 15.710938 C 29.027344 16.539062 29.460938 17.953125 30.601562 18.183594 C 31.066406 18.273438 31.523438 18.378906 31.964844 18.488281 C 31.304688 18.957031 30.726562 19.386719 30.25 19.773438 C 29.90625 20.050781 29.707031 20.472656 29.707031 20.914062 C 29.707031 26.742188 33.152344 27.679688 33.152344 32.292969 C 33.152344 33.484375 34.507812 34.175781 35.472656 33.480469 C 36.109375 33.023438 38.039062 33.589844 37.910156 34.878906 C 37.574219 38.269531 41.6875 37.441406 42.304688 36.078125 C 46.488281 26.8125 39.726562 22.421875 39.277344 12.652344 Z M 39.277344 12.652344 "/>
<path style=" stroke:none;fill-rule:nonzero;fill:rgb(96.862745%,96.862745%,96.862745%);fill-opacity:1;" d="M 29 7.226562 C 27.289062 7.226562 25.816406 8.332031 25 10.019531 C 24.183594 8.332031 22.714844 7.226562 21 7.226562 C 18.449219 7.226562 16.316406 9.777344 16.316406 13.140625 C 16.316406 14.96875 16.957031 16.660156 18.074219 17.78125 C 18.417969 18.125 18.914062 18.277344 19.398438 18.183594 C 20.753906 17.914062 21.882812 17.75 23.445312 17.648438 C 23.894531 17.617188 24.308594 17.382812 24.5625 17.011719 C 24.722656 16.769531 24.871094 16.511719 25 16.242188 C 25.128906 16.511719 25.277344 16.769531 25.441406 17.011719 C 25.695312 17.382812 26.105469 17.617188 26.554688 17.648438 C 28.125 17.75 29.226562 17.914062 30.605469 18.183594 C 31.085938 18.277344 31.582031 18.125 31.925781 17.78125 C 33.046875 16.660156 33.6875 14.96875 33.6875 13.140625 C 33.6875 9.753906 31.53125 7.226562 29 7.226562 Z M 29 7.226562 "/>
<path style=" stroke:none;fill-rule:nonzero;fill:rgb(87.843137%,87.843137%,87.843137%);fill-opacity:1;" d="M 29 7.226562 C 27.289062 7.226562 25.816406 8.332031 25 10.019531 L 25 16.242188 C 25.128906 16.511719 25.277344 16.769531 25.441406 17.011719 C 25.695312 17.382812 26.105469 17.617188 26.554688 17.648438 C 28.125 17.75 29.226562 17.914062 30.605469 18.183594 C 31.085938 18.277344 31.582031 18.125 31.925781 17.78125 C 33.046875 16.660156 33.6875 14.96875 33.6875 13.140625 C 33.6875 9.753906 31.53125 7.226562 29 7.226562 Z M 29 7.226562 "/>
<path style=" stroke:none;fill-rule:nonzero;fill:rgb(100%,83.921569%,39.215686%);fill-opacity:1;" d="M 17.6875 33.921875 C 17.535156 30.664062 14.085938 29.519531 11.371094 31.085938 C 10.207031 31.757812 9.453125 32.792969 9.226562 33.980469 C 7.996094 33.515625 5.878906 32.898438 4.191406 34.585938 C 2.511719 36.265625 3.09375 38.320312 3.582031 39.621094 C 0.695312 40.167969 -0.769531 43.75 0.40625 46.132812 C 0.984375 47.304688 2.121094 48.015625 3.527344 48.082031 C 7.851562 48.292969 10.601562 49.996094 13.421875 49.996094 C 14.976562 49.996094 16.441406 49.449219 17.816406 48.015625 C 21.765625 43.9375 17.988281 40.214844 17.6875 33.921875 Z M 17.6875 33.921875 "/>
<path style=" stroke:none;fill-rule:nonzero;fill:rgb(100%,59.607843%,25.882353%);fill-opacity:1;" d="M 46.417969 39.621094 C 46.90625 38.320312 47.488281 36.265625 45.808594 34.585938 C 44.125 32.898438 42.007812 33.515625 40.777344 33.980469 C 40.550781 32.792969 39.796875 31.757812 38.632812 31.085938 C 35.910156 29.515625 32.46875 30.664062 32.3125 33.921875 C 32.007812 40.269531 28.179688 43.960938 32.28125 48.113281 C 33.699219 49.535156 35.125 50 36.578125 50 C 39.398438 50 42.148438 48.292969 46.472656 48.082031 C 47.878906 48.015625 49.015625 47.304688 49.59375 46.132812 C 50.761719 43.761719 49.320312 40.171875 46.417969 39.621094 Z M 46.417969 39.621094 "/>
<path style=" stroke:none;fill-rule:nonzero;fill:rgb(100%,83.921569%,39.215686%);fill-opacity:1;" d="M 32.675781 15.644531 C 27.5625 14.375 22.613281 14.332031 17.328125 15.644531 C 14.894531 16.246094 14.296875 19.433594 16.339844 20.878906 C 18.265625 22.242188 18.804688 22.804688 19.722656 23.785156 C 20.953125 25.101562 22.230469 26.464844 25 26.464844 C 27.773438 26.464844 29.046875 25.101562 30.277344 23.785156 C 31.175781 22.828125 31.71875 22.253906 33.660156 20.878906 C 35.703125 19.429688 35.109375 16.246094 32.675781 15.644531 Z M 32.675781 15.644531 "/>
<path style=" stroke:none;fill-rule:nonzero;fill:rgb(100%,59.607843%,25.882353%);fill-opacity:1;" d="M 32.675781 15.644531 C 30.097656 15.003906 27.558594 14.675781 25 14.675781 L 25 26.464844 C 27.773438 26.464844 29.046875 25.101562 30.277344 23.785156 C 31.175781 22.828125 31.714844 22.253906 33.660156 20.878906 C 35.703125 19.429688 35.109375 16.246094 32.675781 15.644531 Z M 32.675781 15.644531 "/>
<path style=" stroke:none;fill-rule:nonzero;fill:rgb(10.980392%,13.72549%,13.72549%);fill-opacity:1;" d="M 30.753906 11.992188 C 30.753906 12.84375 30.0625 13.53125 29.214844 13.53125 C 28.367188 13.53125 27.675781 12.84375 27.675781 11.992188 C 27.675781 11.144531 28.367188 10.457031 29.214844 10.457031 C 30.0625 10.457031 30.753906 11.144531 30.753906 11.992188 Z M 30.753906 11.992188 "/>
<path style=" stroke:none;fill-rule:nonzero;fill:rgb(16.078431%,29.019608%,29.019608%);fill-opacity:1;" d="M 22.324219 11.992188 C 22.324219 12.84375 21.632812 13.53125 20.785156 13.53125 C 19.9375 13.53125 19.246094 12.84375 19.246094 11.992188 C 19.246094 11.144531 19.9375 10.457031 20.785156 10.457031 C 21.632812 10.457031 22.324219 11.144531 22.324219 11.992188 Z M 22.324219 11.992188 "/>
</g>
</svg>
